<svg xmlns="http://www.w3.org/2000/svg" xmlns:xlink="http://www.w3.org/1999/xlink" aria-hidden="true" role="img" class="iconify iconify--logos" width="31.88" height="32" preserveAspectRatio="xMidYMid meet" viewBox="0 0 256 257"><defs><linearGradient id="IconifyId1813088fe1fbc01fb466" x1="-.828%" x2="57.636%" y1="7.652%" y2="78.411%"><stop offset="0%" stop-color="#41D1FF"></stop><stop offset="100%" stop-color="#BD34FE"></stop></linearGradient><linearGradient id="IconifyId1813088fe1fbc01fb467" x1="43.376%" x2="50.316%" y1="2.242%" y2="89.03%"><stop offset="0%" stop-color="#FFEA83"></stop><stop offset="8.333%" stop-color="#FFDD35"></stop><stop offset="100%" stop-color="#FFA800"></stop></linearGradient></defs><path fill="url(#IconifyId1813088fe1fbc01fb466)" d="M255.153 37.938L134.897 252.976c-2.483 4.44-8.862 4.466-11.382.048L.875 37.958c-2.746-4.814 1.371-10.646 6.827-9.67l120.385 21.517a6.537 6.537 0 0 0 2.322-.004l117.867-21.483c5.438-.991 9.574 4.796 6.877 9.62Z"></path><path fill="url(#IconifyId1813088fe1fbc01fb467)" d="M185.432.063L96.44 17.501a3.268 3.268 0 0 0-2.634 3.014l-5.474 92.456a3.268 3.268 0 0 0 3.997 3.378l24.777-5.718c2.318-.535 4.413 1.507 3.936 3.838l-7.361 36.047c-.495 2.426 1.782 4.5 4.151 3.78l15.304-4.649c2.372-.72 4.652 1.36 4.15 3.788l-11.698 56.621c-.732 3.542 3.979 5.473 5.943 2.437l1.313-2.028l72.516-144.72c1.215-2.423-.88-5.186-3.54-4.672l-25.505 4.922c-2.396.462-4.435-1.77-3.759-4.114l16.646-57.705c.677-2.35-1.37-4.583-3.769-4.113Z"></path></svg>
<svg xmlns="http://www.w3.org/2000/svg" width="256" height="316" viewBox="0 0 256 316"><path fill="#DD4814" d="M81.834 315.107c-20.223-8.935-33.964-28.183-35.767-50.228a70.919 70.919 0 0 1 32.181-55.763c-3.122 7.614-2.364 16.282 1.97 23.247a21.343 21.343 0 0 0 21.74 8.48c11.84-3.329 18.775-15.622 15.446-27.472a22.582 22.582 0 0 0-6.777-10.747A49.355 49.355 0 0 1 92.896 157.5a46.215 46.215 0 0 1 14.392-23.444c-5.32 14.185 9.683 28.182 19.75 35.068a522.83 522.83 0 0 1 51.537 35.274c17.997 14.185 27.808 36.388 26.272 59.103c-4.049 24.173-21.15 44.13-44.456 51.616c46.623-10.372 94.693-47.41 95.609-99.942c-.916-42.032-26.005-79.75-64.353-96.929h-1.704a15.661 15.661 0 0 1 1.182 6.511a24.497 24.497 0 0 0 0-4.334a21.217 21.217 0 0 1 0 5.122c-2.916 11.949-14.973 19.307-26.951 16.391c-4.787-1.182-9.062-3.87-12.136-7.752c-15.367-19.7 0-42.12 2.571-63.792A81.04 81.04 0 0 0 121.07 0c11.239 18.736-3.734 43.342-14.619 57.34c-10.904 13.997-26.665 24.429-39.51 36.643c-13.84 12.875-26.527 27.03-37.914 42.16C4.41 166.217-5.253 205.885 2.755 243.907c10.984 36.644 41.441 64.176 79.001 71.318h.207z"/></svg>